<svg width="88" height="75" viewBox="0 0 88 75" fill="none" xmlns="http://www.w3.org/2000/svg">
<path d="M36.268 23.7551C16.2379 36.8029 3.46061 53.5632 7.72907 61.1902C11.9975 68.8172 31.6954 64.4227 51.7255 51.3749C71.7556 38.3271 84.5329 21.5669 80.2644 13.9398C75.996 6.31285 56.2981 10.7073 36.268 23.7551Z" fill="url(#paint0_linear_362_5355)"/>
<path d="M51.732 23.6252C71.7621 36.673 84.5394 53.4333 80.2709 61.0603C76.0025 68.6873 56.3046 64.2929 36.2745 51.245C16.2444 38.1972 3.46711 21.437 7.73557 13.81C12.004 6.18297 31.7019 10.5774 51.732 23.6252Z" fill="url(#paint1_linear_362_5355)"/>
<defs>
<linearGradient id="paint0_linear_362_5355" x1="80.2644" y1="13.9399" x2="4.89256" y2="56.1218" gradientUnits="userSpaceOnUse">
<stop stop-color="#FB90E3"/>
<stop offset="0.222883" stop-color="white"/>
<stop offset="0.3025" stop-color="#FDBEEF"/>
<stop offset="0.48448" stop-color="#0CAF4B"/>
<stop offset="0.57168" stop-color="#F85FD7"/>
<stop offset="0.700583" stop-color="white"/>
<stop offset="1" stop-color="#B7EDFD"/>
</linearGradient>
<linearGradient id="paint1_linear_362_5355" x1="7.73557" y1="13.81" x2="83.1074" y2="55.992" gradientUnits="userSpaceOnUse">
<stop stop-color="#FB90E3"/>
<stop offset="0.222883" stop-color="white"/>
<stop offset="0.3025" stop-color="#FDBEEF"/>
<stop offset="0.48448" stop-color="#0CAF4B"/>
<stop offset="0.57168" stop-color="#F85FD7"/>
<stop offset="0.700583" stop-color="white"/>
<stop offset="1" stop-color="#B7EDFD"/>
</linearGradient>
</defs>
</svg>
